<svg width="16" height="16" viewBox="0 0 16 16" fill="none" xmlns="http://www.w3.org/2000/svg">
<path d="M15.514 6.27935C14.9122 5.29384 14.153 4.41352 13.2667 3.67335L15.1333 1.80669C15.2548 1.68095 15.322 1.51255 15.3205 1.33775C15.3189 1.16296 15.2488 0.995748 15.1252 0.872142C15.0016 0.748537 14.8344 0.678424 14.6596 0.676905C14.4848 0.675386 14.3164 0.742582 14.1907 0.864021L12.1607 2.89669C10.9023 2.14924 9.46362 1.75966 8 1.77002C3.87267 1.77002 1.52067 4.59535 0.486004 6.27935C0.166356 6.79636 -0.00296021 7.39218 -0.00296021 8.00002C-0.00296021 8.60786 0.166356 9.20368 0.486004 9.72069C1.08784 10.7062 1.847 11.5865 2.73334 12.3267L0.86667 14.1934C0.802997 14.2549 0.752209 14.3284 0.717269 14.4098C0.68233 14.4911 0.663939 14.5786 0.66317 14.6671C0.662401 14.7556 0.679269 14.8434 0.712789 14.9253C0.74631 15.0073 0.795812 15.0817 0.858407 15.1443C0.921002 15.2069 0.995437 15.2564 1.07737 15.2899C1.1593 15.3234 1.24708 15.3403 1.3356 15.3395C1.42412 15.3388 1.5116 15.3204 1.59294 15.2854C1.67428 15.2505 1.74784 15.1997 1.80934 15.136L3.844 13.1014C5.10085 13.8487 6.53778 14.2389 8 14.23C12.1273 14.23 14.4793 11.4047 15.514 9.72069C15.8337 9.20368 16.003 8.60786 16.003 8.00002C16.003 7.39218 15.8337 6.79636 15.514 6.27935ZM1.622 9.02269C1.43209 8.71538 1.3315 8.36127 1.3315 8.00002C1.3315 7.63877 1.43209 7.28466 1.622 6.97735C2.51134 5.53335 4.52134 3.10335 8 3.10335C9.10685 3.09715 10.1982 3.36391 11.1773 3.88002L9.83534 5.22202C9.19529 4.79709 8.42794 4.60669 7.66349 4.68312C6.89904 4.75955 6.18458 5.09811 5.64134 5.64136C5.0981 6.1846 4.75953 6.89906 4.6831 7.66351C4.60667 8.42796 4.79707 9.19531 5.222 9.83535L3.682 11.3754C2.86541 10.7152 2.16856 9.91932 1.622 9.02269ZM10 8.00002C10 8.53045 9.78929 9.03916 9.41422 9.41424C9.03915 9.78931 8.53044 10 8 10C7.70301 9.99887 7.41014 9.9305 7.14334 9.80002L9.8 7.14335C9.93048 7.41015 9.99885 7.70303 10 8.00002ZM6 8.00002C6 7.46959 6.21072 6.96088 6.58579 6.58581C6.96086 6.21073 7.46957 6.00002 8 6.00002C8.297 6.00117 8.58987 6.06955 8.85667 6.20002L6.2 8.85669C6.06953 8.58989 6.00115 8.29701 6 8.00002ZM14.378 9.02269C13.4887 10.4667 11.4787 12.8967 8 12.8967C6.89316 12.9029 5.80185 12.6361 4.82267 12.12L6.16467 10.778C6.80472 11.203 7.57207 11.3934 8.33652 11.3169C9.10097 11.2405 9.81543 10.9019 10.3587 10.3587C10.9019 9.81544 11.2405 9.10098 11.3169 8.33653C11.3933 7.57208 11.2029 6.80473 10.778 6.16469L12.318 4.62469C13.1346 5.28487 13.8314 6.08072 14.378 6.97735C14.5679 7.28466 14.6685 7.63877 14.6685 8.00002C14.6685 8.36127 14.5679 8.71538 14.378 9.02269Z" fill="#6D6D6D"/>
</svg>
